<svg width="56" height="56" viewBox="0 0 56 56" fill="none" xmlns="http://www.w3.org/2000/svg">
<g clip-path="url(#clip0)">
<path d="M15.3403 48.2728L41.2135 44.7444C42.8552 44.5205 44.0045 43.0082 43.7806 41.3666L40.1895 15.0328L28.7714 6.35522L9.97355 8.9187C8.33189 9.14258 7.18255 10.6549 7.40642 12.2966L11.9625 45.7056C12.1863 47.3473 13.6986 48.4966 15.3403 48.2728Z" fill="#ffe700"/>
<path fill-rule="evenodd" clip-rule="evenodd" d="M40.2174 15.0292L28.7993 6.35156L28.7993 6.35156L29.0277 8.0262L29.7642 13.4269C29.9881 15.0686 31.5004 16.2179 33.142 15.994L38.5428 15.2575L40.2174 15.0292Z" fill="#2D2047"/>
<path d="M16.8192 22.1149C16.7446 21.5676 17.1277 21.0635 17.6749 20.9889L27.5832 19.6377C28.1304 19.5631 28.6345 19.9462 28.7092 20.4934C28.7838 21.0406 28.4007 21.5447 27.8534 21.6194L17.9452 22.9706C17.3979 23.0452 16.8938 22.6621 16.8192 22.1149Z" fill="white"/>
<path d="M17.3597 26.0782C17.2851 25.5309 17.6682 25.0268 18.2154 24.9522L28.1237 23.601C28.6709 23.5264 29.175 23.9095 29.2496 24.4567C29.3243 25.0039 28.9411 25.508 28.3939 25.5827L18.4856 26.9339C17.9384 27.0085 17.4343 26.6254 17.3597 26.0782Z" fill="white"/>
<path d="M17.9002 30.0415C17.8255 29.4943 18.2087 28.9902 18.7559 28.9155L22.7192 28.3751C23.2664 28.3004 23.7705 28.6835 23.8451 29.2308C23.9198 29.778 23.5367 30.2821 22.9894 30.3567L19.0261 30.8972C18.4789 30.9718 17.9748 30.5887 17.9002 30.0415Z" fill="white"/>
</g>
<g clip-path="url(#clip1)">
<path d="M18.9995 47.7177L45.1122 47.7187C46.769 47.7188 48.1122 46.3757 48.1123 44.7188L48.1133 18.1413L37.9729 8.00011L19.001 7.99939C17.3442 7.99932 16.001 9.34242 16.0009 10.9993L15.9996 44.7176C15.9996 46.3744 17.3427 47.7176 18.9995 47.7177Z" fill="#00f0ff"/>
<path fill-rule="evenodd" clip-rule="evenodd" d="M48.1414 18.1417L38.001 8.00049L38.001 8.00049L38.0009 9.69063L38.0007 15.1413C38.0006 16.7982 39.3437 18.1414 41.0006 18.1415L46.4513 18.1417L48.1414 18.1417Z" fill="#2D2047"/>
<path d="M24.0005 22C24.0005 21.4477 24.4482 21 25.0005 21L35.0005 21.0004C35.5528 21.0004 36.0005 21.4482 36.0005 22.0005C36.0004 22.5527 35.5527 23.0004 35.0004 23.0004L25.0004 23C24.4481 23 24.0004 22.5523 24.0005 22Z" fill="white"/>
<path d="M24.0003 26C24.0003 25.4477 24.4481 25 25.0003 25L35.0003 25.0004C35.5526 25.0004 36.0003 25.4482 36.0003 26.0005C36.0003 26.5527 35.5525 27.0004 35.0003 27.0004L25.0003 27C24.448 27 24.0003 26.5523 24.0003 26Z" fill="white"/>
<path d="M24.0001 30C24.0002 29.4477 24.4479 29 25.0002 29L29.0002 29.0002C29.5525 29.0002 30.0002 29.4479 30.0001 30.0002C30.0001 30.5525 29.5524 31.0002 29.0001 31.0002L25.0001 31C24.4478 31 24.0001 30.5523 24.0001 30Z" fill="white"/>
</g>
<defs>
<clipPath id="clip0">
<rect width="32" height="40" fill="white" transform="translate(7.00098 9.32422) rotate(-7.76558)"/>
</clipPath>
<clipPath id="clip1">
<rect width="42.1064" height="42.9984" fill="white" transform="translate(6 5)"/>
</clipPath>
</defs>
</svg>
